# WaveFront *.obj file (generated by Autodesk ATF)

mtllib border.mtl

g Solid1

v -8.090000 -5.000000 -8.090000
v -8.090000 -5.000000 8.090000
v -8.090000 -2.000000 -8.090000
v -8.090000 -2.000000 8.090000
v -6.090000 0.000000 -8.090000
v -6.090000 0.000000 8.090000
v 6.090000 0.000000 -8.090000
v 6.090000 0.000000 8.090000
v 8.090000 -5.000000 -8.090000
v 8.090000 -5.000000 8.090000
v 8.090000 -2.000000 -8.090000
v 8.090000 -2.000000 8.090000
vt 1.213500 -0.141421 0.000000
vt 1.213500 0.141421 0.000000
vt -0.404500 0.141421 0.000000
vt -0.404500 -0.141421 0.000000
vt 1.618000 0.300000 0.000000
vt 1.418000 0.500000 0.000000
vt 0.200000 0.500000 0.000000
vt 0.000000 0.300000 0.000000
vt 0.000000 0.000000 0.000000
vt 1.618000 0.000000 0.000000
vt 0.809000 0.609000 0.000000
vt -0.809000 0.609000 0.000000
vt -0.809000 -0.609000 0.000000
vt 0.809000 -0.609000 0.000000
vt 1.213500 -0.141421 0.000000
vt 1.213500 0.141421 0.000000
vt -0.404500 0.141421 0.000000
vt -0.404500 -0.141421 0.000000
vt 1.618000 0.300000 0.000000
vt 0.000000 0.300000 0.000000
vt 0.000000 0.000000 0.000000
vt 1.618000 0.000000 0.000000
vt 0.200000 0.500000 0.000000
vt 0.000000 0.300000 0.000000
vt 0.000000 0.000000 0.000000
vt 1.618000 0.000000 0.000000
vt 1.618000 0.300000 0.000000
vt 1.418000 0.500000 0.000000
vt 1.618000 0.300000 0.000000
vt 0.000000 0.300000 0.000000
vt 0.000000 0.000000 0.000000
vt 1.618000 0.000000 0.000000
vt 0.809000 0.809000 0.000000
vt -0.809000 0.809000 0.000000
vt -0.809000 -0.809000 0.000000
vt 0.809000 -0.809000 0.000000
vn 0.070711 0.070711 0.000000
vn 0.070711 0.070711 0.000000
vn 0.070711 0.070711 0.000000
vn 0.070711 0.070711 0.000000
vn 0.000000 0.000000 0.100000
vn 0.000000 0.000000 0.100000
vn 0.000000 0.000000 0.100000
vn 0.000000 0.000000 0.100000
vn 0.000000 0.000000 0.100000
vn 0.000000 0.000000 0.100000
vn 0.000000 0.100000 0.000000
vn 0.000000 0.100000 0.000000
vn 0.000000 0.100000 0.000000
vn 0.000000 0.100000 0.000000
vn -0.070711 0.070711 0.000000
vn -0.070711 0.070711 0.000000
vn -0.070711 0.070711 0.000000
vn -0.070711 0.070711 0.000000
vn -0.100000 0.000000 0.000000
vn -0.100000 0.000000 0.000000
vn -0.100000 0.000000 0.000000
vn -0.100000 0.000000 0.000000
vn 0.000000 0.000000 -0.100000
vn 0.000000 0.000000 -0.100000
vn 0.000000 0.000000 -0.100000
vn 0.000000 0.000000 -0.100000
vn 0.000000 0.000000 -0.100000
vn 0.000000 0.000000 -0.100000
vn 0.100000 0.000000 0.000000
vn 0.100000 0.000000 0.000000
vn 0.100000 0.000000 0.000000
vn 0.100000 0.000000 0.000000
vn 0.000000 -0.100000 0.000000
vn 0.000000 -0.100000 0.000000
vn 0.000000 -0.100000 0.000000
vn 0.000000 -0.100000 0.000000
usemtl 191,191,191
f 7/2/2 8/3/3 11/1/1
f 11/1/1 8/3/3 12/4/4
f 8/6/6 6/7/7 12/5/5
f 12/5/5 6/7/7 10/10/10
f 10/10/10 6/7/7 4/8/8
f 10/10/10 4/8/8 2/9/9
f 8/11/11 7/12/12 6/14/14
f 6/14/14 7/12/12 5/13/13
f 6/16/16 5/17/17 4/15/15
f 4/15/15 5/17/17 3/18/18
f 4/19/19 3/20/20 2/22/22
f 2/22/22 3/20/20 1/21/21
f 11/24/24 1/26/26 7/23/23
f 7/23/23 1/26/26 3/27/27
f 7/23/23 3/27/27 5/28/28
f 11/24/24 9/25/25 1/26/26
f 11/29/29 12/30/30 9/32/32
f 9/32/32 12/30/30 10/31/31
f 9/33/33 10/34/34 1/36/36
f 1/36/36 10/34/34 2/35/35

# 12 vertices
# 36 texture params
# 36 normals
# 20 facets

# 1 groups
