# WaveFront *.obj file (generated by Autodesk ATF)

mtllib corner.mtl

g Solid2

v -8.090000 -5.000000 -8.090000
v -8.090000 -5.000000 8.090000
v -8.090000 -2.000000 -8.090000
v -8.090000 -2.000000 8.090000
v -6.090000 0.000000 -8.090000
v -6.090000 0.000000 6.090000
v 6.090000 0.000000 -8.090000
v 6.090000 0.000000 -6.090000
v 8.090000 -5.000000 -8.090000
v 8.090000 -5.000000 8.090000
v 8.090000 -2.000000 -8.090000
v 8.090000 -2.000000 8.090000
v 8.090000 0.000000 -6.090000
v 8.090000 0.000000 6.090000
vt 7.890000 0.500000 0.000000
vt 6.672000 0.500000 0.000000
vt 6.472000 0.300000 0.000000
vt 6.472000 0.000000 0.000000
vt 8.090000 0.000000 0.000000
vt 8.090000 0.300000 0.000000
vt -6.472000 -8.090000 0.000000
vt -6.472000 -6.472000 0.000000
vt -8.090000 -6.472000 0.000000
vt -8.090000 -8.090000 0.000000
vt -12.944000 0.000000 0.000000
vt -12.944000 0.300000 0.000000
vt -13.144000 0.500000 0.000000
vt -14.362000 0.500000 0.000000
vt -14.562000 0.300000 0.000000
vt -14.562000 0.000000 0.000000
vt -9.708000 -0.141421 0.000000
vt -9.708000 0.141421 0.000000
vt -9.908000 0.141421 0.000000
vt -2.427000 -0.141421 0.000000
vt -2.427000 0.141421 0.000000
vt -3.845000 0.141421 0.000000
vt -4.045000 -0.141421 0.000000
vt 6.472000 -6.672000 0.000000
vt 6.472000 -7.890000 0.000000
vt 7.890000 -7.890000 0.000000
vt 7.890000 -6.472000 0.000000
vt 6.672000 -6.472000 0.000000
vt 6.672000 -6.672000 0.000000
vt 3.236000 0.141421 0.000000
vt 3.236000 -0.141421 0.000000
vt 3.436000 0.141421 0.000000
vt 10.517000 0.141421 0.000000
vt 10.517000 -0.141421 0.000000
vt 12.135000 -0.141421 0.000000
vt 11.935000 0.141421 0.000000
vt 14.562000 0.300000 0.000000
vt 14.562000 0.000000 0.000000
vt 16.180000 0.000000 0.000000
vt 16.180000 0.300000 0.000000
vt 1.618000 0.000000 0.000000
vt 1.618000 0.300000 0.000000
vt 0.000000 0.300000 0.000000
vt 0.000000 0.000000 0.000000
vn 0.000000 0.000000 -0.100000
vn 0.000000 0.000000 -0.100000
vn 0.000000 0.000000 -0.100000
vn 0.000000 0.000000 -0.100000
vn 0.000000 0.000000 -0.100000
vn 0.000000 0.000000 -0.100000
vn 0.000000 -0.100000 0.000000
vn 0.000000 -0.100000 0.000000
vn 0.000000 -0.100000 0.000000
vn 0.000000 -0.100000 0.000000
vn 0.100000 0.000000 0.000000
vn 0.100000 0.000000 0.000000
vn 0.100000 0.000000 0.000000
vn 0.100000 0.000000 0.000000
vn 0.100000 0.000000 0.000000
vn 0.100000 0.000000 0.000000
vn 0.070711 0.070711 0.000000
vn 0.070711 0.070711 0.000000
vn 0.070711 0.070711 0.000000
vn 0.000000 0.070711 0.070711
vn 0.000000 0.070711 0.070711
vn 0.000000 0.070711 0.070711
vn 0.000000 0.070711 0.070711
vn 0.000000 0.100000 0.000000
vn 0.000000 0.100000 0.000000
vn 0.000000 0.100000 0.000000
vn 0.000000 0.100000 0.000000
vn 0.000000 0.100000 0.000000
vn 0.000000 0.100000 0.000000
vn 0.000000 0.070711 -0.070711
vn 0.000000 0.070711 -0.070711
vn 0.000000 0.070711 -0.070711
vn -0.070711 0.070711 0.000000
vn -0.070711 0.070711 0.000000
vn -0.070711 0.070711 0.000000
vn -0.070711 0.070711 0.000000
vn -0.100000 0.000000 0.000000
vn -0.100000 0.000000 0.000000
vn -0.100000 0.000000 0.000000
vn -0.100000 0.000000 0.000000
vn 0.000000 0.000000 0.100000
vn 0.000000 0.000000 0.100000
vn 0.000000 0.000000 0.100000
vn 0.000000 0.000000 0.100000
usemtl 191,191,191
f 5/1/1 7/2/2 3/6/6
f 3/6/6 7/2/2 11/3/3
f 3/6/6 11/3/3 1/5/5
f 1/5/5 11/3/3 9/4/4
f 9/8/8 10/9/9 1/7/7
f 1/7/7 10/9/9 2/10/10
f 10/16/16 9/11/11 12/15/15
f 12/15/15 9/11/11 11/12/12
f 12/15/15 11/12/12 14/14/14
f 14/14/14 11/12/12 13/13/13
f 11/17/17 7/18/18 8/19/19
f 14/21/21 6/22/22 12/20/20
f 12/20/20 6/22/22 4/23/23
f 7/24/24 5/25/25 8/29/29
f 8/29/29 5/25/25 6/26/26
f 8/29/29 6/26/26 14/27/27
f 14/27/27 13/28/28 8/29/29
f 13/30/30 11/31/31 8/32/32
f 5/33/33 3/34/34 6/36/36
f 6/36/36 3/34/34 4/35/35
f 1/38/38 2/39/39 3/37/37
f 3/37/37 2/39/39 4/40/40
f 12/42/42 4/43/43 10/41/41
f 10/41/41 4/43/43 2/44/44

# 14 vertices
# 44 texture params
# 44 normals
# 24 facets

# 1 groups
