# WaveFront *.obj file (generated by Autodesk ATF)

mtllib warcaby.mtl

g Solid2

v -5.000000 0.000000 0.000000
v -5.000000 3.250000 0.000000
v -4.750000 3.500000 0.000000
v -4.567727 0.000000 -2.033683
v -4.567727 0.000000 2.033683
v -4.567727 3.250000 -2.033683
v -4.567727 3.250000 2.033683
v -4.339341 3.500000 -1.931999
v -4.339341 3.500000 1.931999
v -4.250000 0.000000 0.000000
v -4.250000 2.500000 0.000000
v -4.082860 3.396065 -0.719918
v -4.082860 3.396065 0.719918
v -3.829118 0.000000 -1.844006
v -3.829118 0.000000 1.844006
v -3.829118 2.500000 -1.844006
v -3.829118 2.500000 1.844006
v -3.590407 3.396065 -2.072922
v -3.590407 3.396065 2.072922
v -3.569874 3.125114 0.433461
v -3.362406 3.125114 -1.275192
v -3.345653 0.000000 -3.715724
v -3.345653 0.000000 3.715724
v -3.345653 3.250000 -3.715724
v -3.345653 3.250000 3.715724
v -3.178370 3.500000 -3.529938
v -3.178370 3.500000 3.529938
v -2.959527 3.125114 2.042814
v -2.664898 3.396065 -3.175901
v -2.664898 3.396065 3.175901
v -2.649832 0.000000 -3.322784
v -2.649832 0.000000 3.322784
v -2.649832 2.500000 -3.322784
v -2.649832 2.500000 3.322784
v -2.384651 3.125114 -2.691715
v -1.671188 3.125114 3.184183
v -1.545085 0.000000 -4.755283
v -1.545085 0.000000 4.755283
v -1.545085 3.250000 -4.755283
v -1.545085 3.250000 4.755283
v -1.467831 3.500000 -4.517519
v -1.467831 3.500000 4.517519
v -1.417962 3.396065 -3.895820
v -1.417962 3.396065 3.895820
v -0.945714 0.000000 -4.143444
v -0.945714 0.000000 4.143444
v -0.945714 2.500000 -4.143444
v -0.945714 2.500000 4.143444
v -0.860602 3.125114 -3.491598
v 0.000000 3.125114 3.596094
v 0.000000 3.364591 0.000000
v 0.000000 3.396065 -4.145845
v 0.000000 3.396065 4.145845
v 0.496510 3.500000 -4.723979
v 0.496510 3.500000 4.723979
v 0.522642 0.000000 -4.972610
v 0.522642 0.000000 4.972610
v 0.522642 3.250000 -4.972610
v 0.522642 3.250000 4.972610
v 0.860602 3.125114 -3.491598
v 0.945714 0.000000 -4.143444
v 0.945714 0.000000 4.143444
v 0.945714 2.500000 -4.143444
v 0.945714 2.500000 4.143444
v 1.417962 3.396065 -3.895820
v 1.417962 3.396065 3.895820
v 1.671188 3.125114 3.184183
v 2.375000 3.500000 -4.113621
v 2.375000 3.500000 4.113621
v 2.384651 3.125114 -2.691715
v 2.500000 0.000000 -4.330127
v 2.500000 0.000000 4.330127
v 2.500000 3.250000 -4.330127
v 2.500000 3.250000 4.330127
v 2.649832 0.000000 -3.322784
v 2.649832 0.000000 3.322784
v 2.649832 2.500000 -3.322784
v 2.649832 2.500000 3.322784
v 2.664898 3.396065 -3.175901
v 2.664898 3.396065 3.175901
v 2.959527 3.125114 2.042814
v 3.362406 3.125114 -1.275192
v 3.569874 3.125114 0.433461
v 3.590407 3.396065 -2.072922
v 3.590407 3.396065 2.072922
v 3.829118 0.000000 -1.844006
v 3.829118 0.000000 1.844006
v 3.829118 2.500000 -1.844006
v 3.829118 2.500000 1.844006
v 3.842831 3.500000 -2.791980
v 3.842831 3.500000 2.791980
v 4.045085 0.000000 -2.938926
v 4.045085 0.000000 2.938926
v 4.045085 3.250000 -2.938926
v 4.045085 3.250000 2.938926
v 4.082860 3.396065 -0.719918
v 4.082860 3.396065 0.719918
v 4.250000 0.000000 0.000000
v 4.250000 2.500000 0.000000
v 4.646201 3.500000 -0.987581
v 4.646201 3.500000 0.987581
v 4.890738 0.000000 -1.039558
v 4.890738 0.000000 1.039558
v 4.890738 3.250000 -1.039558
v 4.890738 3.250000 1.039558
vt 3.249097 0.566362 0.000000
vt 3.249097 0.479229 0.000000
vt 3.249097 0.392097 0.000000
vt 3.249097 0.304964 0.000000
vt 3.249097 0.217832 0.000000
vt 3.249097 0.130699 0.000000
vt 3.249097 0.043566 0.000000
vt 3.249097 -0.043566 0.000000
vt 3.249097 -0.130699 0.000000
vt 3.249097 -0.217832 0.000000
vt 3.249097 -0.304964 0.000000
vt 3.249097 -0.392097 0.000000
vt 3.249097 -0.479229 0.000000
vt 3.609879 -0.566362 0.000000
vt 3.609879 -0.188787 0.000000
vt 3.609879 0.188787 0.000000
vt 3.609879 -0.530964 0.000000
vt 3.609879 -0.495567 0.000000
vt 3.609879 -0.460169 0.000000
vt 3.609879 -0.424772 0.000000
vt 3.609879 -0.389374 0.000000
vt 3.609879 -0.353976 0.000000
vt 3.609879 -0.318579 0.000000
vt 3.609879 -0.283181 0.000000
vt 3.609879 -0.247783 0.000000
vt 3.609879 -0.212386 0.000000
vt 3.609879 -0.176988 0.000000
vt 3.609879 -0.141591 0.000000
vt 3.609879 -0.106193 0.000000
vt 3.609879 -0.070795 0.000000
vt 3.609879 -0.035398 0.000000
vt 3.609879 0.000000 0.000000
vt 3.609879 0.035398 0.000000
vt 3.609879 0.070795 0.000000
vt 3.609879 0.106193 0.000000
vt 3.609879 0.141591 0.000000
vt 3.609879 0.176988 0.000000
vt 3.609879 0.212386 0.000000
vt 3.609879 0.247783 0.000000
vt 3.609879 0.283181 0.000000
vt 3.609879 0.318579 0.000000
vt 3.609879 0.353976 0.000000
vt 3.609879 0.389374 0.000000
vt 3.609879 0.424772 0.000000
vt 3.609879 0.460169 0.000000
vt 3.609879 0.495567 0.000000
vt 3.609879 0.530964 0.000000
vt 3.249097 -0.566362 0.000000
vt 0.341676 -0.651238 0.000000
vt 0.341676 -0.824901 0.000000
vt 0.341676 -0.998565 0.000000
vt 0.341676 1.432724 0.000000
vt 0.341676 1.259060 0.000000
vt 0.341676 1.085397 0.000000
vt 0.341676 0.911733 0.000000
vt 0.341676 0.738070 0.000000
vt 0.341676 0.564406 0.000000
vt 0.341676 0.390743 0.000000
vt 0.341676 0.217079 0.000000
vt 0.341676 0.043416 0.000000
vt 0.341676 -0.130248 0.000000
vt 0.341676 -0.303911 0.000000
vt 0.341676 -0.477574 0.000000
vt 0.464692 -1.302476 0.000000
vt 0.464692 -1.102095 0.000000
vt 0.464692 -0.901714 0.000000
vt 0.464692 -0.701333 0.000000
vt 0.464692 -0.500952 0.000000
vt 0.464692 -0.300571 0.000000
vt 0.464692 -0.100190 0.000000
vt 0.464692 0.100190 0.000000
vt 0.464692 0.300571 0.000000
vt 0.464692 0.500952 0.000000
vt 0.464692 0.701333 0.000000
vt 0.464692 0.901714 0.000000
vt 0.464692 1.102095 0.000000
vt 0.403191 -1.302476 0.000000
vt 0.403191 -1.013037 0.000000
vt 0.403191 -0.868317 0.000000
vt 0.403191 -0.144720 0.000000
vt 0.403191 0.144720 0.000000
vt 0.403191 0.723598 0.000000
vt 0.403191 0.868317 0.000000
vt 0.403191 -0.578878 0.000000
vt 0.403191 -0.723598 0.000000
vt 0.403191 -1.157756 0.000000
vt 0.403191 1.157756 0.000000
vt 0.403191 1.013037 0.000000
vt 0.403191 0.578878 0.000000
vt 0.403191 0.434159 0.000000
vt 0.403191 0.289439 0.000000
vt 0.403191 0.000000 0.000000
vt 0.403191 -0.289439 0.000000
vt 0.403191 -0.434159 0.000000
vt 0.341676 -1.172228 0.000000
vt 0.341676 -1.172228 0.000000
vt 0.341676 -1.172228 0.000000
vt 0.403191 -1.447196 0.000000
vt 0.464692 1.302476 0.000000
vt 0.403191 1.302476 0.000000
vt 0.403191 1.302476 0.000000
vt 0.017678 -1.531526 0.000000
vt 0.017678 -1.327323 0.000000
vt 0.017678 -1.123119 0.000000
vt 0.017678 -0.918916 0.000000
vt 0.017678 -0.714712 0.000000
vt 0.017678 -0.510509 0.000000
vt 0.017678 -0.306305 0.000000
vt 0.017678 -0.102102 0.000000
vt 0.017678 0.102102 0.000000
vt 0.017678 0.306305 0.000000
vt 0.017678 0.510509 0.000000
vt 0.017678 0.714712 0.000000
vt 0.017678 0.918916 0.000000
vt 0.017678 1.123119 0.000000
vt 0.017678 1.327323 0.000000
vt -0.017678 1.531526 0.000000
vt -0.017678 1.327323 0.000000
vt -0.017678 1.123119 0.000000
vt -0.017678 0.918916 0.000000
vt -0.017678 0.714712 0.000000
vt -0.017678 0.510509 0.000000
vt -0.017678 0.306305 0.000000
vt -0.017678 0.102102 0.000000
vt -0.017678 -0.102102 0.000000
vt -0.017678 -0.306305 0.000000
vt -0.017678 -0.510509 0.000000
vt -0.017678 -0.714712 0.000000
vt -0.017678 -0.918916 0.000000
vt -0.017678 -1.123119 0.000000
vt -0.017678 -1.327323 0.000000
vt -0.017678 -1.531526 0.000000
vt 0.017678 1.531526 0.000000
vt -0.000000 -1.570796 0.000000
vt -0.000000 -1.361357 0.000000
vt -0.000000 -1.151917 0.000000
vt -0.000000 -0.942478 0.000000
vt -0.000000 -0.733038 0.000000
vt -0.000000 -0.523599 0.000000
vt -0.000000 -0.314159 0.000000
vt -0.000000 -0.104720 0.000000
vt -0.000000 0.104720 0.000000
vt -0.000000 0.314159 0.000000
vt -0.000000 0.523599 0.000000
vt -0.000000 0.733038 0.000000
vt -0.000000 0.942478 0.000000
vt -0.000000 1.151917 0.000000
vt -0.000000 1.361357 0.000000
vt -0.325000 1.570796 0.000000
vt -0.325000 1.361357 0.000000
vt -0.325000 1.151917 0.000000
vt -0.325000 0.942478 0.000000
vt -0.325000 0.733038 0.000000
vt -0.325000 0.523599 0.000000
vt -0.325000 0.314159 0.000000
vt -0.325000 0.104720 0.000000
vt -0.325000 -0.104720 0.000000
vt -0.325000 -0.314159 0.000000
vt -0.325000 -0.523599 0.000000
vt -0.325000 -0.733038 0.000000
vt -0.325000 -0.942478 0.000000
vt -0.325000 -1.151917 0.000000
vt -0.325000 -1.361357 0.000000
vt -0.325000 -1.570796 0.000000
vt -0.000000 1.570796 0.000000
vt 0.250000 -1.335177 0.000000
vt 0.250000 -1.144437 0.000000
vt 0.250000 -0.953698 0.000000
vt 0.250000 -0.762958 0.000000
vt 0.250000 -0.572219 0.000000
vt 0.250000 -0.381479 0.000000
vt 0.250000 -0.190740 0.000000
vt 0.250000 0.000000 0.000000
vt 0.250000 0.190740 0.000000
vt 0.250000 0.381479 0.000000
vt 0.250000 0.572219 0.000000
vt 0.250000 0.762958 0.000000
vt 0.250000 0.953698 0.000000
vt 0.250000 1.144437 0.000000
vt 0.000000 1.335177 0.000000
vt 0.000000 1.144437 0.000000
vt 0.000000 0.953698 0.000000
vt 0.000000 0.762958 0.000000
vt 0.000000 0.572219 0.000000
vt 0.000000 0.381479 0.000000
vt 0.000000 0.190740 0.000000
vt 0.000000 0.000000 0.000000
vt 0.000000 -0.190740 0.000000
vt 0.000000 -0.381479 0.000000
vt 0.000000 -0.572219 0.000000
vt 0.000000 -0.762958 0.000000
vt 0.000000 -0.953698 0.000000
vt 0.000000 -1.144437 0.000000
vt 0.000000 -1.335177 0.000000
vt 0.250000 1.335177 0.000000
vt -0.000000 0.425000 0.000000
vt -0.184401 0.382912 0.000000
vt -0.332278 0.264983 0.000000
vt -0.414344 0.094571 0.000000
vt -0.414344 -0.094571 0.000000
vt -0.332278 -0.264983 0.000000
vt -0.184401 -0.382912 0.000000
vt -0.000000 -0.425000 0.000000
vt 0.184401 -0.382912 0.000000
vt 0.332278 -0.264983 0.000000
vt 0.414344 -0.094571 0.000000
vt 0.414344 0.094571 0.000000
vt 0.332278 0.264983 0.000000
vt 0.184401 0.382912 0.000000
vt -0.000000 0.425000 0.000000
vt 0.184401 0.382912 0.000000
vt 0.332278 0.264983 0.000000
vt 0.414344 0.094571 0.000000
vt 0.414344 -0.094571 0.000000
vt 0.332278 -0.264983 0.000000
vt 0.184401 -0.382912 0.000000
vt -0.000000 -0.425000 0.000000
vt -0.184401 -0.382912 0.000000
vt -0.332278 -0.264983 0.000000
vt -0.414344 -0.094571 0.000000
vt -0.414344 0.094571 0.000000
vt -0.332278 0.264983 0.000000
vt -0.184401 0.382912 0.000000
vt -0.000000 -0.500000 0.000000
vt 0.203368 -0.456773 0.000000
vt 0.371572 -0.334565 0.000000
vt 0.475528 -0.154509 0.000000
vt 0.497261 0.052264 0.000000
vt 0.433013 0.250000 0.000000
vt 0.293893 0.404509 0.000000
vt 0.103956 0.489074 0.000000
vt -0.103956 0.489074 0.000000
vt -0.293893 0.404509 0.000000
vt -0.433013 0.250000 0.000000
vt -0.497261 0.052264 0.000000
vt -0.475528 -0.154509 0.000000
vt -0.371572 -0.334565 0.000000
vt -0.203368 -0.456773 0.000000
vn 0.000000 0.098942 0.014511
vn 0.006743 0.098942 0.012849
vn 0.011942 0.098942 0.008243
vn 0.014405 0.098942 0.001749
vn 0.013568 0.098942 -0.005146
vn 0.009622 0.098942 -0.010861
vn 0.003473 0.098942 -0.014089
vn -0.003473 0.098942 -0.014089
vn -0.009622 0.098942 -0.010861
vn -0.013568 0.098942 -0.005146
vn -0.014405 0.098942 0.001749
vn -0.011942 0.098942 0.008243
vn -0.006743 0.098942 0.012849
vn 0.000000 0.099992 -0.001263
vn 0.001094 0.099992 0.000632
vn -0.001094 0.099992 0.000632
vn 0.000246 0.099992 -0.001239
vn 0.000483 0.099992 -0.001167
vn 0.000702 0.099992 -0.001050
vn 0.000893 0.099992 -0.000893
vn 0.001050 0.099992 -0.000702
vn 0.001167 0.099992 -0.000483
vn 0.001239 0.099992 -0.000246
vn 0.001263 0.099992 0.000000
vn 0.001239 0.099992 0.000246
vn 0.001167 0.099992 0.000483
vn 0.001050 0.099992 0.000702
vn 0.000893 0.099992 0.000893
vn 0.000702 0.099992 0.001050
vn 0.000483 0.099992 0.001167
vn 0.000246 0.099992 0.001239
vn 0.000000 0.099992 0.001263
vn -0.000246 0.099992 0.001239
vn -0.000483 0.099992 0.001167
vn -0.000702 0.099992 0.001050
vn -0.000893 0.099992 0.000893
vn -0.001050 0.099992 0.000702
vn -0.001167 0.099992 0.000483
vn -0.001239 0.099992 0.000246
vn -0.001263 0.099992 0.000000
vn -0.001239 0.099992 -0.000246
vn -0.001167 0.099992 -0.000483
vn -0.001050 0.099992 -0.000702
vn -0.000893 0.099992 -0.000893
vn -0.000702 0.099992 -0.001050
vn -0.000483 0.099992 -0.001167
vn -0.000246 0.099992 -0.001239
vn 0.000000 0.098942 0.014511
vn 0.002657 0.099965 0.000000
vn 0.002427 0.099965 -0.001081
vn 0.001778 0.099965 -0.001974
vn 0.000821 0.099965 -0.002527
vn -0.000278 0.099965 -0.002642
vn -0.001328 0.099965 -0.002301
vn -0.002149 0.099965 -0.001562
vn -0.002599 0.099965 -0.000552
vn -0.002599 0.099965 0.000552
vn -0.002149 0.099965 0.001562
vn -0.001328 0.099965 0.002301
vn -0.000278 0.099965 0.002642
vn 0.000821 0.099965 0.002527
vn 0.001778 0.099965 0.001974
vn 0.002427 0.099965 0.001081
vn 0.000000 0.082438 -0.056603
vn 0.026305 0.082438 -0.050120
vn 0.046583 0.082438 -0.032154
vn 0.056190 0.082438 -0.006823
vn 0.052925 0.082438 0.020072
vn 0.037535 0.082438 0.042368
vn 0.013546 0.082438 0.054958
vn -0.013546 0.082438 0.054958
vn -0.037535 0.082438 0.042368
vn -0.052925 0.082438 0.020072
vn -0.056190 0.082438 -0.006823
vn -0.046583 0.082438 -0.032154
vn -0.026305 0.082438 -0.050120
vn 0.000000 0.095106 -0.030902
vn 0.019863 0.095106 -0.023672
vn 0.026762 0.095106 -0.015451
vn 0.010569 0.095106 0.029038
vn -0.010569 0.095106 0.029038
vn -0.030432 0.095106 -0.005366
vn -0.026762 0.095106 -0.015451
vn 0.030432 0.095106 0.005366
vn 0.030432 0.095106 -0.005366
vn 0.010569 0.095106 -0.029038
vn -0.010569 0.095106 -0.029038
vn -0.019863 0.095106 -0.023672
vn -0.030432 0.095106 0.005366
vn -0.026762 0.095106 0.015451
vn -0.019863 0.095106 0.023672
vn 0.000000 0.095106 0.030902
vn 0.019863 0.095106 0.023672
vn 0.026762 0.095106 0.015451
vn 0.000821 0.099965 -0.002527
vn 0.000821 0.099965 -0.002527
vn 0.000821 0.099965 -0.002527
vn -0.010569 0.095106 -0.029038
vn 0.000000 0.082438 -0.056603
vn 0.000000 0.095106 -0.030902
vn 0.000000 0.095106 -0.030902
vn -0.070711 0.070711 0.000000
vn -0.064597 0.070711 0.028761
vn -0.047315 0.070711 0.052548
vn -0.021851 0.070711 0.067250
vn 0.007391 0.070711 0.070323
vn 0.035355 0.070711 0.061237
vn 0.057206 0.070711 0.041563
vn 0.069165 0.070711 0.014702
vn 0.069165 0.070711 -0.014702
vn 0.057206 0.070711 -0.041563
vn 0.035355 0.070711 -0.061237
vn 0.007391 0.070711 -0.070323
vn -0.021851 0.070711 -0.067250
vn -0.047315 0.070711 -0.052548
vn -0.064597 0.070711 -0.028761
vn -0.070711 0.070711 0.000000
vn -0.064597 0.070711 -0.028761
vn -0.047315 0.070711 -0.052548
vn -0.021851 0.070711 -0.067250
vn 0.007391 0.070711 -0.070323
vn 0.035355 0.070711 -0.061237
vn 0.057206 0.070711 -0.041563
vn 0.069165 0.070711 -0.014702
vn 0.069165 0.070711 0.014702
vn 0.057206 0.070711 0.041563
vn 0.035355 0.070711 0.061237
vn 0.007391 0.070711 0.070323
vn -0.021851 0.070711 0.067250
vn -0.047315 0.070711 0.052548
vn -0.064597 0.070711 0.028761
vn -0.070711 0.070711 0.000000
vn -0.070711 0.070711 0.000000
vn -0.100000 0.000000 0.000000
vn -0.091355 0.000000 0.040674
vn -0.066913 0.000000 0.074314
vn -0.030902 0.000000 0.095106
vn 0.010453 0.000000 0.099452
vn 0.050000 0.000000 0.086603
vn 0.080902 0.000000 0.058779
vn 0.097815 0.000000 0.020791
vn 0.097815 0.000000 -0.020791
vn 0.080902 0.000000 -0.058779
vn 0.050000 0.000000 -0.086603
vn 0.010453 0.000000 -0.099452
vn -0.030902 0.000000 -0.095106
vn -0.066913 0.000000 -0.074314
vn -0.091355 0.000000 -0.040674
vn -0.100000 0.000000 0.000000
vn -0.091355 0.000000 -0.040674
vn -0.066913 0.000000 -0.074314
vn -0.030902 0.000000 -0.095106
vn 0.010453 0.000000 -0.099452
vn 0.050000 0.000000 -0.086603
vn 0.080902 0.000000 -0.058779
vn 0.097815 0.000000 -0.020791
vn 0.097815 0.000000 0.020791
vn 0.080902 0.000000 0.058779
vn 0.050000 0.000000 0.086603
vn 0.010453 0.000000 0.099452
vn -0.030902 0.000000 0.095106
vn -0.066913 0.000000 0.074314
vn -0.091355 0.000000 0.040674
vn -0.100000 0.000000 0.000000
vn -0.100000 0.000000 0.000000
vn -0.100000 0.000000 0.000000
vn -0.090097 0.000000 0.043388
vn -0.062349 0.000000 0.078183
vn -0.022252 0.000000 0.097493
vn 0.022252 0.000000 0.097493
vn 0.062349 0.000000 0.078183
vn 0.090097 0.000000 0.043388
vn 0.100000 0.000000 0.000000
vn 0.090097 0.000000 -0.043388
vn 0.062349 0.000000 -0.078183
vn 0.022252 0.000000 -0.097493
vn -0.022252 0.000000 -0.097493
vn -0.062349 0.000000 -0.078183
vn -0.090097 0.000000 -0.043388
vn -0.100000 0.000000 0.000000
vn -0.090097 0.000000 -0.043388
vn -0.062349 0.000000 -0.078183
vn -0.022252 0.000000 -0.097493
vn 0.022252 0.000000 -0.097493
vn 0.062349 0.000000 -0.078183
vn 0.090097 0.000000 -0.043388
vn 0.100000 0.000000 0.000000
vn 0.090097 0.000000 0.043388
vn 0.062349 0.000000 0.078183
vn 0.022252 0.000000 0.097493
vn -0.022252 0.000000 0.097493
vn -0.062349 0.000000 0.078183
vn -0.090097 0.000000 0.043388
vn -0.100000 0.000000 0.000000
vn -0.100000 0.000000 0.000000
vn 0.000000 -0.100000 0.000000
vn 0.000000 -0.100000 0.000000
vn 0.000000 -0.100000 0.000000
vn 0.000000 -0.100000 0.000000
vn 0.000000 -0.100000 0.000000
vn 0.000000 -0.100000 0.000000
vn 0.000000 -0.100000 0.000000
vn 0.000000 -0.100000 0.000000
vn 0.000000 -0.100000 0.000000
vn 0.000000 -0.100000 0.000000
vn 0.000000 -0.100000 0.000000
vn 0.000000 -0.100000 0.000000
vn 0.000000 -0.100000 0.000000
vn 0.000000 -0.100000 0.000000
vn 0.000000 -0.100000 0.000000
vn 0.000000 -0.100000 0.000000
vn 0.000000 -0.100000 0.000000
vn 0.000000 -0.100000 0.000000
vn 0.000000 -0.100000 0.000000
vn 0.000000 -0.100000 0.000000
vn 0.000000 -0.100000 0.000000
vn 0.000000 -0.100000 0.000000
vn 0.000000 -0.100000 0.000000
vn 0.000000 -0.100000 0.000000
vn 0.000000 -0.100000 0.000000
vn 0.000000 -0.100000 0.000000
vn 0.000000 -0.100000 0.000000
vn 0.000000 -0.100000 0.000000
vn 0.000000 -0.100000 0.000000
vn 0.000000 -0.100000 0.000000
vn 0.000000 -0.100000 0.000000
vn 0.000000 -0.100000 0.000000
vn 0.000000 -0.100000 0.000000
vn 0.000000 -0.100000 0.000000
vn 0.000000 -0.100000 0.000000
vn 0.000000 -0.100000 0.000000
vn 0.000000 -0.100000 0.000000
vn 0.000000 -0.100000 0.000000
vn 0.000000 -0.100000 0.000000
vn 0.000000 -0.100000 0.000000
vn 0.000000 -0.100000 0.000000
vn 0.000000 -0.100000 0.000000
vn 0.000000 -0.100000 0.000000
usemtl 0,0,0
f 67/2/2 51/47/47 50/1/1
f 81/3/3 51/45/45 67/2/2
f 83/4/4 51/43/43 81/3/3
f 82/5/5 51/40/40 83/4/4
f 70/6/6 51/38/38 82/5/5
f 60/7/7 51/35/35 70/6/6
f 49/8/8 51/33/33 60/7/7
f 35/9/9 51/30/30 49/8/8
f 21/10/10 51/28/28 35/9/9
f 20/11/11 51/25/25 21/10/10
f 28/12/12 51/23/23 20/11/11
f 36/13/13 51/20/20 28/12/12
f 50/48/48 51/18/18 36/13/13
f 9/50/50 13/85/85 3/49/49
f 3/49/49 13/85/85 12/84/84
f 3/49/49 12/84/84 8/63/63
f 8/63/63 12/84/84 18/94/94
f 8/63/63 18/94/94 26/62/62
f 26/62/62 18/94/94 29/93/93
f 26/62/62 29/93/93 43/80/80
f 43/80/80 29/93/93 35/69/69
f 43/80/80 35/69/69 49/70/70
f 13/85/85 9/50/50 19/79/79
f 19/79/79 9/50/50 27/51/51
f 19/79/79 27/51/51 30/78/78
f 30/78/78 27/51/51 42/95/95
f 30/78/78 42/96/96 44/86/86
f 44/86/86 42/97/97 53/77/77
f 44/86/86 53/77/77 50/64/64
f 50/64/64 53/77/77 66/98/98
f 50/99/99 66/87/87 67/76/76
f 67/76/76 66/87/87 80/88/88
f 67/76/76 80/88/88 81/75/75
f 81/75/75 80/88/88 85/83/83
f 81/75/75 85/83/83 83/74/74
f 83/74/74 85/83/83 97/82/82
f 83/74/74 97/82/82 96/89/89
f 96/89/89 97/82/82 100/57/57
f 96/89/89 100/57/57 84/90/90
f 84/90/90 100/57/57 90/58/58
f 84/90/90 90/58/58 79/91/91
f 79/91/91 90/58/58 68/59/59
f 79/91/91 68/59/59 65/81/81
f 65/81/81 68/59/59 54/60/60
f 65/81/81 54/60/60 52/92/92
f 52/92/92 54/60/60 41/61/61
f 52/92/92 41/61/61 43/80/80
f 43/80/80 41/61/61 26/62/62
f 42/52/52 55/53/53 53/100/100
f 53/101/101 55/53/53 66/87/87
f 55/53/53 69/54/54 66/87/87
f 66/87/87 69/54/54 80/88/88
f 69/54/54 91/55/55 80/88/88
f 80/88/88 91/55/55 85/83/83
f 91/55/55 101/56/56 85/83/83
f 85/83/83 101/56/56 97/82/82
f 101/56/56 100/57/57 97/82/82
f 50/64/64 36/65/65 44/86/86
f 44/86/86 36/65/65 30/78/78
f 36/65/65 28/66/66 30/78/78
f 30/78/78 28/66/66 19/79/79
f 28/66/66 20/67/67 19/79/79
f 19/79/79 20/67/67 13/85/85
f 13/85/85 20/67/67 12/84/84
f 12/84/84 20/67/67 21/68/68
f 12/84/84 21/68/68 18/94/94
f 18/94/94 21/68/68 35/69/69
f 18/94/94 35/69/69 29/93/93
f 43/80/80 49/70/70 52/92/92
f 52/92/92 49/70/70 60/71/71
f 52/92/92 60/71/71 65/81/81
f 65/81/81 60/71/71 70/72/72
f 65/81/81 70/72/72 79/91/91
f 79/91/91 70/72/72 84/90/90
f 70/72/72 82/73/73 84/90/90
f 84/90/90 82/73/73 96/89/89
f 82/73/73 83/74/74 96/89/89
f 7/103/103 9/131/131 2/102/102
f 2/102/102 9/131/131 3/132/132
f 2/133/133 3/117/117 6/116/116
f 6/116/116 3/117/117 8/118/118
f 6/116/116 8/118/118 24/115/115
f 24/115/115 8/118/118 26/119/119
f 24/115/115 26/119/119 39/114/114
f 39/114/114 26/119/119 41/120/120
f 39/114/114 41/120/120 58/113/113
f 58/113/113 41/120/120 54/121/121
f 58/113/113 54/121/121 73/112/112
f 73/112/112 54/121/121 68/122/122
f 73/112/112 68/122/122 94/111/111
f 94/111/111 68/122/122 90/123/123
f 94/111/111 90/123/123 104/110/110
f 104/110/110 90/123/123 100/124/124
f 104/110/110 100/124/124 105/109/109
f 105/109/109 100/124/124 101/125/125
f 105/109/109 101/125/125 95/108/108
f 95/108/108 101/125/125 91/126/126
f 95/108/108 91/126/126 74/107/107
f 74/107/107 91/126/126 69/127/127
f 74/107/107 69/127/127 59/106/106
f 59/106/106 69/127/127 55/128/128
f 59/106/106 55/128/128 40/105/105
f 40/105/105 55/128/128 42/129/129
f 40/105/105 42/129/129 25/104/104
f 25/104/104 42/129/129 27/130/130
f 25/104/104 27/130/130 7/103/103
f 7/103/103 27/130/130 9/131/131
f 5/135/135 7/163/163 1/134/134
f 1/134/134 7/163/163 2/164/164
f 1/165/165 2/149/149 4/148/148
f 4/148/148 2/149/149 6/150/150
f 4/148/148 6/150/150 22/147/147
f 22/147/147 6/150/150 24/151/151
f 22/147/147 24/151/151 37/146/146
f 37/146/146 24/151/151 39/152/152
f 37/146/146 39/152/152 56/145/145
f 56/145/145 39/152/152 58/153/153
f 56/145/145 58/153/153 71/144/144
f 71/144/144 58/153/153 73/154/154
f 71/144/144 73/154/154 92/143/143
f 92/143/143 73/154/154 94/155/155
f 92/143/143 94/155/155 102/142/142
f 102/142/142 94/155/155 104/156/156
f 102/142/142 104/156/156 103/141/141
f 103/141/141 104/156/156 105/157/157
f 103/141/141 105/157/157 93/140/140
f 93/140/140 105/157/157 95/158/158
f 93/140/140 95/158/158 72/139/139
f 72/139/139 95/158/158 74/159/159
f 72/139/139 74/159/159 57/138/138
f 57/138/138 74/159/159 59/160/160
f 57/138/138 59/160/160 38/137/137
f 38/137/137 59/160/160 40/161/161
f 38/137/137 40/161/161 23/136/136
f 23/136/136 40/161/161 25/162/162
f 23/136/136 25/162/162 5/135/135
f 5/135/135 25/162/162 7/163/163
f 88/167/167 86/193/193 99/166/166
f 99/166/166 86/193/193 98/194/194
f 99/195/195 98/180/180 89/179/179
f 89/179/179 98/180/180 87/181/181
f 89/179/179 87/181/181 78/178/178
f 78/178/178 87/181/181 76/182/182
f 78/178/178 76/182/182 64/177/177
f 64/177/177 76/182/182 62/183/183
f 64/177/177 62/183/183 48/176/176
f 48/176/176 62/183/183 46/184/184
f 48/176/176 46/184/184 34/175/175
f 34/175/175 46/184/184 32/185/185
f 34/175/175 32/185/185 17/174/174
f 17/174/174 32/185/185 15/186/186
f 17/174/174 15/186/186 11/173/173
f 11/173/173 15/186/186 10/187/187
f 11/173/173 10/187/187 16/172/172
f 16/172/172 10/187/187 14/188/188
f 16/172/172 14/188/188 33/171/171
f 33/171/171 14/188/188 31/189/189
f 33/171/171 31/189/189 47/170/170
f 47/170/170 31/189/189 45/190/190
f 47/170/170 45/190/190 63/169/169
f 63/169/169 45/190/190 61/191/191
f 63/169/169 61/191/191 77/168/168
f 77/168/168 61/191/191 75/192/192
f 77/168/168 75/192/192 88/167/167
f 88/167/167 75/192/192 86/193/193
f 89/197/197 11/203/203 99/196/196
f 99/196/196 11/203/203 16/204/204
f 99/196/196 16/204/204 88/209/209
f 88/209/209 16/204/204 33/205/205
f 88/209/209 33/205/205 77/208/208
f 77/208/208 33/205/205 47/206/206
f 77/208/208 47/206/206 63/207/207
f 11/203/203 89/197/197 17/202/202
f 17/202/202 89/197/197 78/198/198
f 17/202/202 78/198/198 34/201/201
f 34/201/201 78/198/198 64/199/199
f 34/201/201 64/199/199 48/200/200
f 86/211/211 102/231/231 98/210/210
f 98/210/210 102/231/231 103/232/232
f 98/210/210 103/232/232 87/223/223
f 87/223/223 103/232/232 93/233/233
f 87/223/223 93/233/233 76/222/222
f 76/222/222 93/233/233 72/234/234
f 76/222/222 72/234/234 62/221/221
f 62/221/221 72/234/234 57/235/235
f 62/221/221 57/235/235 46/220/220
f 46/220/220 57/235/235 38/236/236
f 46/220/220 38/236/236 32/219/219
f 32/219/219 38/236/236 23/237/237
f 32/219/219 23/237/237 15/218/218
f 15/218/218 23/237/237 5/238/238
f 15/218/218 5/238/238 10/217/217
f 10/217/217 5/238/238 1/224/224
f 10/217/217 1/224/224 4/225/225
f 102/231/231 86/211/211 92/230/230
f 92/230/230 86/211/211 75/212/212
f 92/230/230 75/212/212 71/229/229
f 71/229/229 75/212/212 61/213/213
f 71/229/229 61/213/213 56/228/228
f 56/228/228 61/213/213 45/214/214
f 56/228/228 45/214/214 37/227/227
f 37/227/227 45/214/214 31/215/215
f 37/227/227 31/215/215 22/226/226
f 22/226/226 31/215/215 14/216/216
f 22/226/226 14/216/216 4/225/225
f 4/225/225 14/216/216 10/217/217

# 105 vertices
# 238 texture params
# 238 normals
# 206 facets

# 1 groups
