# WaveFront *.obj file (generated by Autodesk ATF)

mtllib tile.mtl

g Solid1

v -8.090000 -5.000000 -8.090000
v -8.090000 -5.000000 8.090000
v -8.090000 -0.500000 -8.090000
v -8.090000 -0.500000 8.090000
v -7.590000 0.000000 -7.590000
v -7.590000 0.000000 7.590000
v 7.590000 0.000000 -7.590000
v 7.590000 0.000000 7.590000
v 8.090000 -5.000000 -8.090000
v 8.090000 -5.000000 8.090000
v 8.090000 -0.500000 -8.090000
v 8.090000 -0.500000 8.090000
vt 1.163500 0.035355 0.000000
vt -0.354500 0.035355 0.000000
vt -0.404500 -0.035355 0.000000
vt 1.213500 -0.035355 0.000000
vt 1.163500 0.035355 0.000000
vt -0.354500 0.035355 0.000000
vt -0.404500 -0.035355 0.000000
vt 1.213500 -0.035355 0.000000
vt 1.163500 0.035355 0.000000
vt -0.354500 0.035355 0.000000
vt -0.404500 -0.035355 0.000000
vt 1.213500 -0.035355 0.000000
vt -0.404500 -0.035355 0.000000
vt 1.213500 -0.035355 0.000000
vt 1.163500 0.035355 0.000000
vt -0.354500 0.035355 0.000000
vt 1.618000 0.450000 0.000000
vt 0.000000 0.450000 0.000000
vt 0.000000 0.000000 0.000000
vt 1.618000 0.000000 0.000000
vt 1.618000 0.450000 0.000000
vt 0.000000 0.450000 0.000000
vt 0.000000 0.000000 0.000000
vt 1.618000 0.000000 0.000000
vt -0.759000 0.759000 0.000000
vt -0.759000 -0.759000 0.000000
vt 0.759000 -0.759000 0.000000
vt 0.759000 0.759000 0.000000
vt 1.618000 0.450000 0.000000
vt 0.000000 0.450000 0.000000
vt 0.000000 0.000000 0.000000
vt 1.618000 0.000000 0.000000
vt 1.618000 0.450000 0.000000
vt 0.000000 0.450000 0.000000
vt 0.000000 0.000000 0.000000
vt 1.618000 0.000000 0.000000
vt -0.809000 0.809000 0.000000
vt -0.809000 -0.809000 0.000000
vt 0.809000 -0.809000 0.000000
vt 0.809000 0.809000 0.000000
vn 0.000000 0.070711 -0.070711
vn 0.000000 0.070711 -0.070711
vn 0.000000 0.070711 -0.070711
vn 0.000000 0.070711 -0.070711
vn 0.070711 0.070711 0.000000
vn 0.070711 0.070711 0.000000
vn 0.070711 0.070711 0.000000
vn 0.070711 0.070711 0.000000
vn 0.000000 0.070711 0.070711
vn 0.000000 0.070711 0.070711
vn 0.000000 0.070711 0.070711
vn 0.000000 0.070711 0.070711
vn -0.070711 0.070711 0.000000
vn -0.070711 0.070711 0.000000
vn -0.070711 0.070711 0.000000
vn -0.070711 0.070711 0.000000
vn -0.100000 0.000000 0.000000
vn -0.100000 0.000000 0.000000
vn -0.100000 0.000000 0.000000
vn -0.100000 0.000000 0.000000
vn 0.000000 0.000000 -0.100000
vn 0.000000 0.000000 -0.100000
vn 0.000000 0.000000 -0.100000
vn 0.000000 0.000000 -0.100000
vn 0.000000 0.100000 0.000000
vn 0.000000 0.100000 0.000000
vn 0.000000 0.100000 0.000000
vn 0.000000 0.100000 0.000000
vn 0.100000 0.000000 0.000000
vn 0.100000 0.000000 0.000000
vn 0.100000 0.000000 0.000000
vn 0.100000 0.000000 0.000000
vn 0.000000 0.000000 0.100000
vn 0.000000 0.000000 0.100000
vn 0.000000 0.000000 0.100000
vn 0.000000 0.000000 0.100000
vn 0.000000 -0.100000 0.000000
vn 0.000000 -0.100000 0.000000
vn 0.000000 -0.100000 0.000000
vn 0.000000 -0.100000 0.000000
usemtl 191,191,191
f 5/1/1 7/2/2 3/4/4
f 3/4/4 7/2/2 11/3/3
f 7/5/5 8/6/6 11/8/8
f 11/8/8 8/6/6 12/7/7
f 8/9/9 6/10/10 12/12/12
f 12/12/12 6/10/10 4/11/11
f 3/13/13 4/14/14 5/16/16
f 5/16/16 4/14/14 6/15/15
f 4/17/17 3/18/18 2/20/20
f 2/20/20 3/18/18 1/19/19
f 3/21/21 11/22/22 1/24/24
f 1/24/24 11/22/22 9/23/23
f 5/26/26 6/27/27 7/25/25
f 7/25/25 6/27/27 8/28/28
f 11/29/29 12/30/30 9/32/32
f 9/32/32 12/30/30 10/31/31
f 12/33/33 4/34/34 10/36/36
f 10/36/36 4/34/34 2/35/35
f 2/38/38 1/39/39 10/37/37
f 10/37/37 1/39/39 9/40/40

# 12 vertices
# 40 texture params
# 40 normals
# 20 facets

# 1 groups
